<?xml version="1.0" standalone="no"?>
<!DOCTYPE svg PUBLIC "-//W3C//DTD SVG 20010904//EN"
 "http://www.w3.org/TR/2001/REC-SVG-20010904/DTD/svg10.dtd">
<svg version="1.0" xmlns="http://www.w3.org/2000/svg"
 width="16.000000pt" height="16.000000pt" viewBox="0 0 16.000000 16.000000"
 preserveAspectRatio="xMidYMid meet">
<metadata>
Created by potrace 1.11, written by Peter Selinger 2001-2013
</metadata>
<g transform="translate(0.000000,16.000000) scale(0.000520,-0.000520)"
fill="#000000" stroke="none">
<path d="M14125 30739 c4 -5 13 -9 22 -9 27 0 289 -136 395 -205 350 -230 663
-573 885 -970 147 -263 272 -591 338 -885 2 -8 4 -15 5 -15 1 0 3 -9 5 -19 2
-11 11 -51 19 -90 8 -39 20 -100 26 -136 6 -36 13 -76 15 -89 2 -13 7 -45 11
-70 3 -25 7 -56 9 -69 2 -13 7 -53 10 -90 4 -37 8 -80 10 -97 25 -208 25 -836
0 -1110 -19 -205 -26 -285 -30 -315 -3 -19 -7 -57 -10 -85 -3 -27 -7 -61 -10
-75 -4 -24 -11 -75 -19 -137 -2 -15 -7 -44 -10 -63 -3 -19 -8 -46 -10 -60 -2
-14 -9 -52 -14 -85 -6 -33 -13 -73 -15 -90 -3 -16 -8 -41 -11 -55 -3 -14 -8
-36 -10 -50 -3 -20 -32 -158 -61 -293 -2 -10 -7 -27 -10 -37 -3 -10 -8 -27
-10 -37 -20 -98 -86 -348 -142 -538 -38 -129 -174 -544 -192 -585 -5 -14 -38
-99 -71 -189 -34 -91 -70 -184 -81 -207 -10 -24 -19 -46 -19 -49 0 -8 -144
-342 -191 -443 -21 -46 -39 -86 -39 -89 0 -7 -283 -575 -323 -648 -18 -33 -52
-96 -76 -140 -24 -44 -60 -109 -79 -145 -20 -36 -55 -98 -79 -138 -24 -41 -43
-75 -43 -78 0 -2 -16 -28 -35 -58 -19 -30 -35 -58 -35 -61 0 -5 -15 -29 -87
-142 -18 -28 -33 -54 -33 -56 0 -21 -471 -745 -651 -1001 -57 -81 -108 -155
-114 -164 -5 -9 -12 -19 -15 -22 -3 -3 -23 -30 -45 -60 -37 -53 -83 -116 -149
-207 -17 -23 -40 -54 -51 -69 -40 -56 -280 -371 -339 -446 -34 -42 -72 -91
-86 -109 -26 -34 -312 -389 -341 -424 -10 -11 -45 -54 -79 -95 -67 -80 -118
-141 -216 -254 -33 -39 -71 -84 -85 -100 -37 -44 -171 -199 -183 -212 -6 -6
-38 -42 -71 -79 -33 -38 -65 -73 -70 -79 -6 -6 -39 -44 -75 -85 -36 -41 -76
-86 -90 -100 -14 -15 -47 -51 -75 -82 -161 -178 -477 -514 -679 -723 -112
-116 -382 -400 -447 -470 -30 -33 -63 -69 -74 -80 -16 -17 -136 -150 -190
-210 -5 -6 -39 -45 -75 -86 -35 -41 -71 -82 -80 -91 -8 -9 -24 -27 -35 -40
-11 -13 -70 -82 -130 -154 -61 -71 -149 -177 -195 -235 -47 -58 -87 -107 -90
-110 -3 -3 -55 -68 -116 -145 -243 -309 -521 -691 -697 -955 -42 -63 -80 -119
-85 -125 -15 -18 -278 -439 -332 -530 -255 -433 -445 -794 -615 -1170 -42 -93
-86 -190 -97 -215 -26 -57 -171 -420 -199 -497 -11 -32 -25 -67 -29 -78 -29
-64 -185 -556 -235 -745 -28 -102 -95 -373 -100 -400 -3 -19 -11 -55 -16 -80
-6 -25 -13 -56 -15 -70 -3 -14 -13 -68 -24 -120 -10 -52 -21 -111 -24 -130
-23 -143 -46 -294 -51 -339 -4 -30 -8 -61 -10 -70 -1 -9 -6 -50 -9 -92 -4 -42
-9 -87 -11 -100 -2 -13 -7 -60 -10 -104 -4 -44 -8 -100 -10 -125 -29 -382 -19
-989 21 -1315 2 -16 6 -59 10 -95 3 -36 8 -72 9 -80 2 -9 6 -43 10 -75 4 -33
9 -67 11 -77 1 -9 6 -38 10 -65 3 -26 8 -57 10 -68 2 -11 9 -49 15 -85 57
-358 199 -887 348 -1295 234 -643 607 -1352 979 -1860 24 -33 51 -71 60 -84
71 -100 279 -358 381 -470 100 -111 161 -175 161 -168 0 3 -16 56 -36 119 -33
106 -132 445 -139 478 -2 8 -13 51 -25 95 -12 44 -25 96 -30 115 -4 19 -22 94
-40 165 -17 72 -34 141 -36 155 -3 13 -12 56 -20 95 -61 280 -111 563 -145
815 -11 80 -13 95 -24 205 -4 39 -9 77 -10 85 -2 9 -6 56 -10 105 -4 50 -8
106 -10 125 -25 256 -25 984 -1 1185 4 28 13 132 21 221 2 22 6 57 9 79 3 22
8 60 11 85 3 25 10 72 15 105 5 33 12 78 15 100 2 22 9 63 15 90 5 28 12 62
14 77 3 15 12 63 20 105 9 43 18 87 20 98 2 11 14 61 26 110 12 50 23 97 25
105 27 122 96 361 167 580 45 139 155 443 178 495 5 11 37 88 71 170 33 83 76
183 95 223 19 40 34 74 34 76 0 16 276 576 385 781 278 526 786 1411 958 1670
61 92 226 326 237 335 3 3 18 23 34 45 35 47 291 369 323 405 12 14 31 36 43
50 11 14 38 45 59 70 21 25 94 110 162 190 68 80 133 156 144 169 11 13 31 36
45 51 14 15 45 52 70 81 25 29 55 64 67 76 11 13 36 42 55 65 18 23 47 57 64
77 18 20 93 110 167 201 135 163 135 164 121 192 -24 47 -73 185 -93 266 -40
156 -49 242 -46 417 4 171 7 201 42 345 127 528 524 957 1043 1127 58 19 125
38 150 43 25 5 54 11 65 14 93 19 325 27 445 13 71 -8 92 -11 185 -32 24 -5
111 -29 142 -39 15 -5 28 -1 40 12 26 26 211 227 269 291 27 30 60 66 74 81
14 15 57 62 95 105 39 43 81 90 93 104 13 14 47 53 75 85 29 33 57 64 62 70
20 22 286 332 360 421 28 33 60 71 72 85 11 14 55 68 97 120 42 52 87 107 99
121 59 68 364 466 495 646 242 332 462 658 656 976 96 157 236 396 236 403 0
3 11 21 23 42 88 140 341 648 488 977 190 428 376 945 510 1418 21 78 41 150
44 161 2 12 18 75 35 141 33 132 136 631 145 710 3 28 10 75 15 105 5 30 12
75 15 100 3 25 8 56 10 70 8 54 17 126 20 155 3 38 15 149 20 195 2 19 7 76
11 125 3 50 8 106 9 125 22 265 23 959 1 1145 -2 17 -7 71 -10 120 -4 50 -9
101 -11 115 -2 14 -7 54 -10 90 -4 36 -8 76 -10 90 -2 14 -6 45 -10 70 -3 25
-8 56 -10 70 -3 14 -7 45 -10 69 -3 24 -14 92 -26 150 -183 954 -483 1614
-1033 2271 -77 92 -337 356 -426 432 -97 84 -104 90 -140 117 -19 14 -37 29
-40 32 -15 18 -270 194 -360 249 -175 106 -395 214 -580 285 -150 57 -425 135
-533 150 -23 3 -49 8 -57 10 -8 2 -35 7 -60 10 -25 3 -56 8 -70 10 -95 17
-373 27 -365 14z"/>
<path d="M18964 25792 c-1 -315 -8 -600 -19 -752 -3 -36 -7 -99 -10 -140 -9
-145 -16 -235 -20 -270 -2 -19 -7 -73 -10 -120 -4 -47 -9 -94 -11 -104 -2 -11
-6 -49 -9 -85 -3 -37 -7 -75 -9 -86 -2 -11 -7 -49 -11 -85 -4 -36 -8 -67 -10
-70 -1 -3 -6 -32 -9 -65 -5 -48 -30 -204 -61 -390 -12 -73 -21 -121 -56 -290
-34 -169 -62 -301 -74 -345 -2 -8 -8 -35 -15 -60 -6 -25 -13 -54 -15 -65 -10
-53 -69 -265 -120 -435 -25 -85 -48 -162 -50 -170 -12 -48 -148 -433 -210
-595 -87 -227 -148 -373 -221 -530 -15 -33 -28 -62 -29 -65 -2 -10 -70 -151
-162 -335 -151 -300 -327 -617 -490 -880 -27 -44 -56 -91 -64 -104 -55 -92
-312 -473 -418 -619 -198 -272 -520 -683 -771 -983 -30 -36 -62 -75 -70 -85
-17 -21 -169 -202 -185 -220 -5 -6 -28 -33 -50 -59 -22 -26 -51 -60 -65 -74
-14 -15 -34 -39 -45 -53 -23 -30 -267 -312 -299 -345 -12 -12 -26 -28 -32 -35
-20 -25 -327 -373 -333 -378 -3 -3 -38 -41 -76 -84 -39 -44 -77 -87 -85 -96
-118 -128 -114 -122 -97 -157 20 -38 85 -213 91 -244 2 -13 12 -54 20 -91 9
-36 19 -90 22 -120 3 -29 8 -64 10 -78 10 -75 4 -269 -12 -370 -11 -65 -15
-85 -31 -145 -8 -33 -16 -68 -18 -77 -6 -26 -74 -197 -103 -253 -236 -470
-727 -809 -1247 -861 -90 -9 -278 -8 -335 1 -25 3 -58 9 -75 11 -53 7 -128 25
-197 46 -79 24 -60 37 -183 -122 -96 -124 -137 -178 -321 -430 -23 -30 -110
-152 -194 -270 -136 -191 -227 -313 -488 -660 -91 -121 -80 -106 -128 -170
-22 -30 -63 -86 -89 -125 -27 -38 -65 -92 -84 -120 -144 -206 -420 -634 -521
-810 -10 -16 -49 -84 -87 -150 -66 -114 -101 -177 -200 -359 -49 -90 -313
-621 -313 -630 0 -2 -18 -44 -41 -93 -117 -251 -273 -649 -387 -988 -65 -192
-185 -606 -206 -710 -3 -11 -14 -60 -26 -110 -46 -189 -92 -423 -125 -635 -3
-19 -7 -46 -10 -60 -8 -48 -31 -226 -39 -310 -19 -189 -23 -234 -33 -410 -13
-230 -6 -823 12 -932 2 -13 6 -60 10 -105 3 -45 7 -90 9 -100 2 -10 7 -45 10
-78 4 -33 9 -71 11 -85 2 -14 7 -43 10 -65 14 -109 51 -306 82 -445 19 -85 37
-166 39 -180 3 -14 11 -45 19 -70 7 -25 23 -81 35 -125 64 -232 239 -713 332
-915 16 -36 46 -101 66 -145 336 -739 862 -1458 1482 -2027 614 -561 1425
-1083 2073 -1333 156 -60 442 -144 453 -133 1 2 -25 35 -58 73 -58 68 -245
295 -300 366 -15 19 -54 68 -86 110 -49 62 -233 311 -292 395 -44 62 -280 415
-280 418 0 2 -26 46 -59 97 -246 392 -507 913 -688 1374 -46 116 -81 211 -166
455 -37 107 -111 356 -162 550 -25 96 -50 189 -55 205 -5 17 -14 53 -20 80 -5
28 -16 77 -24 110 -23 98 -47 208 -52 235 -3 14 -13 70 -24 125 -10 55 -21
114 -24 130 -14 81 -28 173 -31 195 -7 64 -16 137 -20 160 -2 14 -7 57 -10 95
-4 39 -8 81 -10 95 -2 14 -7 68 -10 120 -21 319 -21 652 0 945 12 168 21 266
30 335 3 19 7 53 9 75 3 22 10 74 15 115 6 41 14 93 16 115 3 22 8 51 10 65 3
14 8 36 10 50 3 14 10 54 16 90 15 94 66 339 99 470 6 25 13 54 15 65 2 11 20
81 40 155 20 74 38 144 40 155 3 11 32 108 65 215 33 107 62 202 64 210 2 8
12 35 21 60 9 25 17 50 19 57 1 7 5 16 9 19 4 4 7 14 7 22 0 15 134 354 191
482 44 99 240 489 284 565 19 33 41 74 49 90 53 105 316 519 483 760 108 155
322 441 457 610 77 96 315 385 326 395 3 3 45 52 94 110 49 58 94 110 100 115
6 6 42 46 81 90 38 44 72 82 75 85 3 3 46 50 95 105 50 54 97 106 105 115 301
323 304 327 498 529 225 234 677 701 872 901 94 97 460 477 489 508 13 15 84
90 157 167 141 149 143 151 304 325 58 63 112 121 120 130 8 8 58 63 109 120
52 58 97 107 100 110 4 3 38 41 76 85 77 88 132 150 155 175 8 9 55 63 105
120 49 58 92 107 95 110 3 3 50 59 105 125 55 66 106 127 114 135 8 8 103 125
210 260 728 911 1254 1730 1644 2560 42 89 67 146 142 315 87 197 289 760 320
892 3 10 14 50 25 88 52 178 139 542 155 649 3 21 7 41 9 45 2 3 7 26 10 51 3
25 8 54 10 65 11 58 33 211 41 283 3 26 8 63 10 82 28 226 38 413 39 740 1
250 -7 476 -19 563 -2 15 -6 62 -10 105 -3 42 -8 88 -10 102 -2 14 -6 50 -9
80 -6 52 -10 83 -21 140 -3 14 -7 43 -11 65 -3 22 -11 72 -19 110 -8 39 -16
81 -18 95 -20 108 -74 339 -97 415 -5 17 -31 100 -56 185 -54 179 -127 378
-208 570 -61 142 -201 429 -255 518 -17 29 -31 55 -31 57 0 18 -276 447 -292
453 -4 2 -8 8 -8 13 0 8 -176 245 -204 275 -6 7 -47 55 -90 108 -44 53 -82 96
-85 96 -3 0 -6 -152 -7 -338z"/>
<path d="M21344 20507 c8 -24 19 -157 19 -222 0 -192 -89 -708 -169 -975 -14
-47 -29 -98 -34 -115 -19 -73 -106 -312 -145 -400 -7 -16 -25 -55 -38 -85
-119 -265 -306 -634 -429 -849 -26 -46 -48 -85 -48 -87 0 -7 -179 -297 -273
-444 -132 -206 -309 -465 -439 -645 -31 -44 -88 -122 -125 -174 -37 -51 -72
-99 -78 -105 -5 -6 -26 -34 -44 -61 -19 -28 -38 -52 -41 -55 -3 -3 -46 -59
-95 -125 -50 -66 -93 -122 -96 -125 -3 -3 -28 -35 -56 -71 -129 -170 -624
-786 -854 -1064 -56 -66 -339 -398 -373 -435 -23 -25 -55 -61 -71 -80 -52 -59
-279 -314 -295 -330 -8 -9 -51 -56 -95 -104 -44 -49 -93 -103 -110 -121 -16
-17 -68 -73 -115 -124 -46 -51 -95 -105 -109 -119 -43 -48 -313 -338 -391
-421 -19 -21 -82 -89 -140 -151 -58 -62 -116 -125 -130 -140 -14 -14 -63 -68
-110 -120 -47 -51 -99 -108 -117 -127 -17 -19 -63 -69 -101 -111 -39 -42 -81
-89 -94 -103 -40 -44 -180 -200 -237 -263 -29 -34 -66 -74 -81 -91 -14 -16
-64 -73 -110 -125 -45 -52 -94 -108 -109 -125 -14 -16 -62 -73 -106 -125 -44
-52 -82 -97 -85 -100 -34 -32 -395 -479 -528 -655 -50 -66 -95 -124 -100 -130
-52 -62 -312 -432 -434 -615 -99 -151 -308 -486 -308 -495 0 -3 -11 -22 -24
-43 -65 -100 -292 -539 -373 -722 -11 -25 -31 -67 -43 -95 -132 -294 -276
-712 -365 -1060 -5 -16 -9 -34 -11 -40 -16 -62 -74 -345 -88 -430 -15 -89 -28
-174 -32 -205 -2 -19 -6 -48 -8 -65 -3 -16 -8 -57 -11 -90 -3 -33 -7 -78 -10
-100 -31 -298 -27 -912 10 -1210 2 -22 7 -65 10 -95 3 -30 8 -64 10 -75 2 -11
7 -42 10 -70 13 -103 60 -365 90 -495 9 -41 18 -82 20 -91 2 -8 10 -44 19 -80
9 -35 18 -73 21 -84 50 -236 257 -844 375 -1098 16 -36 30 -68 30 -71 0 -15
182 -376 260 -516 91 -162 198 -339 256 -422 19 -26 34 -50 34 -53 0 -3 5 -11
10 -18 6 -7 56 -75 111 -152 184 -255 376 -482 592 -698 509 -510 1042 -874
1697 -1160 25 -10 59 -26 77 -33 17 -8 34 -14 38 -14 4 0 21 -6 38 -14 126
-55 534 -185 666 -211 9 -2 52 -12 96 -23 44 -11 94 -23 110 -26 17 -2 76 -14
132 -25 56 -11 120 -23 141 -26 21 -3 47 -7 57 -9 11 -2 43 -7 70 -10 28 -4
61 -9 75 -11 47 -7 124 -16 174 -21 28 -2 71 -6 96 -9 191 -20 760 -26 960
-11 52 4 116 9 141 11 148 11 553 70 649 95 19 5 51 12 70 15 19 3 98 21 174
40 641 161 1242 436 1731 794 238 174 534 442 690 625 28 32 59 68 70 80 27
29 153 189 197 251 158 223 270 409 391 650 66 132 127 262 127 270 0 3 9 24
19 48 110 241 250 708 307 1017 3 14 10 42 15 64 6 21 8 40 5 43 -2 3 -1 15 4
27 4 13 11 47 15 77 4 30 8 56 10 59 1 3 6 36 10 73 3 37 8 77 10 88 2 10 7
56 10 102 4 45 8 93 11 106 6 41 17 329 17 446 0 115 -11 381 -18 437 -2 18
-6 65 -10 103 -3 39 -8 81 -10 95 -2 14 -6 48 -10 75 -4 28 -8 61 -10 75 -2
14 -6 41 -9 60 -31 224 -130 618 -220 871 -101 289 -246 599 -371 800 -5 9
-19 32 -29 50 -31 55 -134 207 -210 309 -199 270 -476 550 -746 757 -291 222
-674 425 -1043 552 -106 36 -352 106 -415 117 -13 3 -52 11 -86 19 -33 8 -90
19 -126 24 -36 6 -74 13 -85 15 -32 6 -194 25 -270 31 -86 7 -282 7 -390 0
-113 -8 -276 -29 -355 -47 -25 -5 -56 -12 -70 -14 -46 -8 -177 -43 -256 -68
-43 -14 -80 -24 -82 -22 -2 2 -5 26 -8 52 -4 51 -12 106 -18 139 -2 11 -7 49
-11 85 -4 36 -9 74 -11 85 -2 11 -6 40 -9 65 -6 53 -24 194 -30 230 -2 14 -7
50 -10 80 -3 30 -8 62 -10 70 -2 8 -6 42 -10 75 -3 33 -15 121 -25 195 -10 74
-21 160 -25 190 -3 30 -8 66 -10 80 -4 24 -8 54 -20 153 -3 23 -8 60 -12 82
-4 22 -6 43 -5 46 1 4 -3 33 -8 65 -14 90 -18 124 -26 189 -3 33 -8 68 -10 79
-2 10 -6 44 -10 75 -3 31 -8 64 -10 75 -2 10 -6 44 -10 75 -3 31 -8 63 -9 71
-5 26 -18 144 -19 168 -1 18 9 29 41 46 112 61 206 157 263 271 22 44 43 90
45 103 2 13 6 31 9 40 37 122 17 289 -49 425 -17 34 -25 61 -19 66 5 5 92 79
194 166 102 86 208 177 235 200 79 68 92 79 117 99 34 29 142 120 148 126 3 3
68 59 145 125 77 65 156 133 175 151 19 18 47 42 61 55 150 134 246 225 429
409 241 241 282 284 431 455 216 248 448 552 584 765 26 41 58 91 70 110 162
247 360 649 472 955 46 127 135 430 149 505 4 25 8 47 9 50 7 30 25 123 30
154 3 21 7 41 9 45 2 3 7 37 11 76 4 38 8 72 10 75 3 5 12 110 21 250 5 75 4
377 0 420 -3 19 -7 73 -10 120 -3 47 -8 96 -10 110 -3 14 -7 48 -11 75 -9 75
-15 117 -21 145 -2 14 -7 39 -10 55 -35 209 -156 639 -228 810 -7 17 -28 66
-46 110 -164 398 -410 807 -691 1150 -82 101 -131 153 -125 132z m-2634 -7781
c68 -8 183 -63 235 -113 96 -92 148 -215 144 -343 -1 -41 -5 -79 -8 -85 -3 -5
-7 -18 -8 -28 -6 -37 -63 -134 -105 -178 -207 -219 -568 -176 -712 84 -40 73
-56 128 -60 206 -10 225 166 432 389 458 28 3 52 7 54 9 2 2 7 2 10 0 3 -2 31
-7 61 -10z m-421 -980 c51 -43 194 -99 284 -109 21 -3 40 -7 41 -8 3 -3 19
-119 31 -229 2 -14 8 -61 15 -105 6 -44 13 -98 16 -120 7 -61 16 -128 19 -145
2 -8 6 -46 11 -85 4 -38 9 -72 9 -75 1 -3 5 -32 9 -65 4 -33 9 -71 11 -85 2
-14 7 -47 10 -75 4 -27 8 -61 10 -75 6 -38 13 -92 30 -230 9 -69 18 -136 20
-150 2 -14 6 -45 9 -70 3 -25 7 -61 10 -80 13 -88 28 -206 41 -310 2 -19 11
-82 19 -140 8 -58 18 -132 22 -164 3 -33 14 -113 23 -178 9 -65 14 -122 11
-127 -3 -5 -33 -23 -68 -40 -234 -118 -470 -288 -655 -474 l-129 -128 -121
113 c-166 154 -216 200 -236 219 -9 8 -70 65 -136 125 -66 60 -122 111 -125
114 -9 9 -154 144 -271 252 l-116 107 25 73 c31 92 38 233 17 328 -26 111 -88
223 -169 304 -39 40 -82 79 -95 87 l-25 16 90 114 c89 114 309 381 355 431 13
14 49 54 79 89 142 164 333 362 610 635 129 128 244 242 254 253 23 24 43 27
65 7z m-1656 -1646 c323 -100 425 -504 188 -741 -241 -241 -639 -142 -743 184
-106 334 219 661 555 557z m483 -1115 c28 -27 174 -162 249 -230 42 -39 237
-219 310 -286 33 -31 91 -85 130 -120 38 -35 80 -74 92 -86 l24 -23 -24 -37
c-86 -136 -194 -387 -222 -513 -1 -3 -5 -25 -10 -50 -5 -25 -9 -47 -10 -50
-20 -98 -24 -128 -26 -242 l-2 -87 -51 -6 c-28 -4 -62 -8 -76 -10 -31 -4 -117
-13 -195 -20 -33 -3 -71 -8 -85 -10 -24 -4 -179 -20 -290 -31 -30 -3 -66 -7
-80 -9 -14 -3 -54 -7 -90 -11 -36 -3 -78 -7 -95 -9 -16 -3 -59 -7 -95 -11 -36
-3 -72 -8 -81 -9 -9 -2 -50 -6 -91 -10 l-75 -7 -43 79 c-73 134 -229 265 -355
298 -16 5 -32 9 -35 10 -19 6 -81 16 -115 19 -39 3 -40 3 -39 42 1 54 15 218
19 225 2 3 6 27 10 55 31 260 167 751 278 1007 8 17 26 59 40 92 14 33 40 90
56 127 l31 67 72 -33 c99 -46 166 -60 278 -59 114 1 220 32 320 92 l65 39 89
-81 c50 -45 104 -95 122 -112z m1994 -609 c87 -19 175 -48 234 -78 60 -30 157
-89 185 -113 123 -104 213 -211 275 -325 37 -69 92 -223 101 -281 2 -19 8 -59
13 -89 8 -57 8 -183 -1 -235 -20 -125 -46 -210 -90 -305 -17 -36 -51 -96 -75
-134 -44 -66 -172 -205 -222 -239 -101 -70 -145 -96 -220 -128 -177 -76 -353
-100 -540 -73 -116 17 -131 21 -208 50 -211 79 -391 223 -508 404 -34 53 -93
172 -106 215 -42 136 -53 210 -52 350 3 491 359 905 849 988 100 17 267 14
365 -7z m-3262 -1046 c230 -71 365 -292 317 -522 -60 -287 -369 -438 -635
-310 -72 34 -169 131 -202 202 -101 216 -26 467 176 585 95 55 245 75 344 45z
m1846 -415 c28 -89 120 -245 215 -365 82 -103 259 -257 337 -292 l22 -10 -25
-57 c-13 -31 -35 -78 -48 -106 -22 -48 -184 -406 -322 -715 -36 -80 -69 -150
-74 -156 -6 -8 -28 -7 -76 4 -92 19 -237 11 -323 -19 -147 -51 -277 -160 -351
-294 l-41 -75 -74 51 c-180 121 -390 314 -540 494 -177 214 -371 556 -475 836
l-28 76 40 12 c208 62 393 284 422 505 3 25 8 29 43 32 96 8 161 15 179 18 11
2 52 7 90 10 39 4 84 9 100 11 17 2 57 6 90 10 33 3 69 7 80 9 11 2 56 7 99
11 43 4 86 8 95 10 9 1 50 6 91 10 41 4 82 8 90 10 8 1 49 6 90 9 41 4 100 11
130 15 30 4 75 8 101 9 l45 3 18 -56z m2240 -439 c108 -194 118 -466 27 -743
-138 -424 -468 -782 -921 -1000 -104 -50 -314 -126 -395 -144 -33 -7 -62 -13
-65 -14 -52 -12 -69 -16 -89 -20 -40 -7 -173 -25 -221 -28 l-45 -4 3 69 c7
134 -57 318 -143 411 -19 21 -35 43 -35 49 0 10 130 303 245 553 44 95 70 152
125 275 111 248 112 251 129 245 40 -12 151 -34 201 -40 62 -7 232 -8 270 -1
14 2 48 8 75 12 58 9 56 8 115 23 213 56 404 167 567 328 51 51 93 97 93 104
0 22 30 -13 64 -75z m-2184 -1453 c66 -24 125 -59 168 -103 275 -275 102 -744
-282 -765 -351 -20 -582 337 -424 655 29 58 121 151 178 180 115 59 250 71
360 33z"/>
<path d="M13219 16816 c-2 -2 -29 -6 -59 -10 -184 -19 -385 -116 -532 -255
-157 -147 -251 -322 -295 -546 -14 -70 -7 -304 10 -377 88 -365 380 -656 740
-735 118 -26 394 -22 448 8 11 5 19 8 19 5 0 -9 104 31 180 69 339 170 542
510 535 896 -1 58 -5 114 -8 124 -4 11 -9 35 -12 54 -9 52 -43 149 -78 221
-114 238 -338 429 -592 504 -44 13 -101 27 -125 30 -51 8 -226 17 -231 12z"/>
</g>
</svg>
